{
  "accessors": [
    {
      "bufferView": 2,
      "componentType": 5126,
      "count": 112,
      "max": [
        0.49999991059303284,
        0.5,
        0.5
      ],
      "min": [
        -0.5,
        -0.5000000596046448,
        -0.5
      ],
      "type": "VEC3"
    },
    {
      "bufferView": 2,
      "byteOffset": 1344,
      "componentType": 5126,
      "count": 112,
      "max": [
        0.9999998211860657,
        0.9999841451644897,
        0.9999998807907104
      ],
      "min": [
        -0.9999998211860657,
        -1.0,
        -0.9999998807907104
      ],
      "type": "VEC3"
    },
    {
      "bufferView": 3,
      "componentType": 5126,
      "count": 112,
      "max": [
        0.0,
        0.0,
        0.0,
        1.0
      ],
      "min": [
        0.0,
        0.0,
        0.0,
        0.0
      ],
      "type": "VEC4"
    },
    {
      "bufferView": 1,
      "componentType": 5126,
      "count": 112,
      "max": [
        0.875,
        1.0
      ],
      "min": [
        -0.0,
        -1.5727766866646675e-09
      ],
      "type": "VEC2"
    },
    {
      "bufferView": 0,
      "componentType": 5125,
      "count": 300,
      "type": "SCALAR"
    },
    {
      "bufferView": 2,
      "byteOffset": 2688,
      "componentType": 5126,
      "count": 24,
      "max": [
        0.5,
        0.5,
        0.5
      ],
      "min": [
        -0.5,
        -0.5,
        -0.5
      ],
      "type": "VEC3"
    },
    {
      "bufferView": 2,
      "byteOffset": 2976,
      "componentType": 5126,
      "count": 24,
      "max": [
        1.0,
        1.0,
        1.0
      ],
      "min": [
        -1.0,
        -1.0,
        -1.0
      ],
      "type": "VEC3"
    },
    {
      "bufferView": 1,
      "byteOffset": 896,
      "componentType": 5126,
      "count": 24,
      "max": [
        0.8107696771621704,
        1.0
      ],
      "min": [
        0.125,
        0.0
      ],
      "type": "VEC2"
    },
    {
      "bufferView": 0,
      "byteOffset": 1200,
      "componentType": 5125,
      "count": 36,
      "type": "SCALAR"
    },
    {
      "bufferView": 2,
      "byteOffset": 3264,
      "componentType": 5126,
      "count": 112,
      "max": [
        0.49999991059303284,
        0.5,
        0.5
      ],
      "min": [
        -0.5,
        -0.5000000596046448,
        -0.5
      ],
      "type": "VEC3"
    },
    {
      "bufferView": 2,
      "byteOffset": 4608,
      "componentType": 5126,
      "count": 112,
      "max": [
        0.9999998211860657,
        0.9999841451644897,
        0.9999998807907104
      ],
      "min": [
        -0.9999998211860657,
        -1.0,
        -0.9999998807907104
      ],
      "type": "VEC3"
    },
    {
      "bufferView": 3,
      "byteOffset": 1792,
      "componentType": 5126,
      "count": 112,
      "max": [
        0.0,
        0.0,
        0.0,
        1.0
      ],
      "min": [
        0.0,
        0.0,
        0.0,
        0.0
      ],
      "type": "VEC4"
    },
    {
      "bufferView": 1,
      "byteOffset": 1088,
      "componentType": 5126,
      "count": 112,
      "max": [
        0.875,
        1.0
      ],
      "min": [
        -0.0,
        -1.5727766866646675e-09
      ],
      "type": "VEC2"
    },
    {
      "bufferView": 0,
      "byteOffset": 1344,
      "componentType": 5125,
      "count": 300,
      "type": "SCALAR"
    },
    {
      "bufferView": 2,
      "byteOffset": 5952,
      "componentType": 5126,
      "count": 3270,
      "max": [
        0.4246009290218353,
        2.1906065940856934,
        0.40196549892425537
      ],
      "min": [
        -0.37129685282707214,
        0.5757143497467041,
        -0.45170682668685913
      ],
      "type": "VEC3"
    },
    {
      "bufferView": 2,
      "byteOffset": 45192,
      "componentType": 5126,
      "count": 3270,
      "max": [
        0.9998934864997864,
        0.9994970560073853,
        0.9998683929443359
      ],
      "min": [
        -0.9992355108261108,
        -0.9980673789978027,
        -0.9994687438011169
      ],
      "type": "VEC3"
    },
    {
      "bufferView": 1,
      "byteOffset": 1984,
      "componentType": 5126,
      "count": 3270,
      "max": [
        0.9723215103149414,
        0.9642635583877563
      ],
      "min": [
        0.008651256561279297,
        0.02379608154296875
      ],
      "type": "VEC2"
    },
    {
      "bufferView": 0,
      "byteOffset": 2544,
      "componentType": 5125,
      "count": 18972,
      "type": "SCALAR"
    }
  ],
  "asset": {
    "extras": {
      "author": "brruble (https://sketchfab.com/brruble)",
      "license": "CC-BY-4.0 (http://creativecommons.org/licenses/by/4.0/)",
      "source": "https://sketchfab.com/3d-models/mark-twain-award-b2ec64dc80f04566b74130c500327a6e",
      "title": "Mark Twain Award"
    },
    "generator": "Sketchfab-10.50.0",
    "version": "2.0"
  },
  "bufferViews": [
    {
      "buffer": 0,
      "byteLength": 78432,
      "name": "floatBufferViews",
      "target": 34963
    },
    {
      "buffer": 0,
      "byteLength": 28144,
      "byteOffset": 78432,
      "byteStride": 8,
      "name": "floatBufferViews",
      "target": 34962
    },
    {
      "buffer": 0,
      "byteLength": 84432,
      "byteOffset": 106576,
      "byteStride": 12,
      "name": "floatBufferViews",
      "target": 34962
    },
    {
      "buffer": 0,
      "byteLength": 3584,
      "byteOffset": 191008,
      "byteStride": 16,
      "name": "floatBufferViews",
      "target": 34962
    }
  ],
  "buffers": [
    {
      "byteLength": 194592,
      "uri": "scene.bin"
    }
  ],
  "extensionsUsed": [
    "KHR_materials_clearcoat"
  ],
  "images": [
    {
      "uri": "textures/plaque_baseColor.png"
    }
  ],
  "materials": [
    {
      "doubleSided": true,
      "extensions": {
        "KHR_materials_clearcoat": {
          "clearcoatFactor": 0.5306851139120442,
          "clearcoatRoughnessFactor": 0.0
        }
      },
      "name": "base",
      "pbrMetallicRoughness": {
        "baseColorFactor": [
          0.0,
          0.0,
          0.0,
          1.0
        ],
        "metallicFactor": 0.0,
        "roughnessFactor": 0.5483571372112678
      }
    },
    {
      "doubleSided": true,
      "name": "plaque",
      "pbrMetallicRoughness": {
        "baseColorTexture": {
          "index": 0
        },
        "roughnessFactor": 0.27531784105211315
      }
    },
    {
      "doubleSided": true,
      "extensions": {
        "KHR_materials_clearcoat": {
          "clearcoatFactor": 0.28747818737877656,
          "clearcoatRoughnessFactor": 0.36652043850208854
        }
      },
      "name": "bust",
      "pbrMetallicRoughness": {
        "baseColorFactor": [
          0.11870152566189358,
          0.053369808720346704,
          0.012852694097196115,
          1.0
        ],
        "roughnessFactor": 0.5246049407487126
      }
    }
  ],
  "meshes": [
    {
      "name": "Base_base_0",
      "primitives": [
        {
          "attributes": {
            "COLOR_0": 2,
            "NORMAL": 1,
            "POSITION": 0,
            "TEXCOORD_0": 3
          },
          "indices": 4,
          "material": 0,
          "mode": 4
        }
      ]
    },
    {
      "name": "Plaque_plaque_0",
      "primitives": [
        {
          "attributes": {
            "NORMAL": 6,
            "POSITION": 5,
            "TEXCOORD_0": 7
          },
          "indices": 8,
          "material": 1,
          "mode": 4
        }
      ]
    },
    {
      "name": "Base1_base_0",
      "primitives": [
        {
          "attributes": {
            "COLOR_0": 11,
            "NORMAL": 10,
            "POSITION": 9,
            "TEXCOORD_0": 12
          },
          "indices": 13,
          "material": 0,
          "mode": 4
        }
      ]
    },
    {
      "name": "Twain_Retopo_LowPoly1_bust_0",
      "primitives": [
        {
          "attributes": {
            "NORMAL": 15,
            "POSITION": 14,
            "TEXCOORD_0": 16
          },
          "indices": 17,
          "material": 2,
          "mode": 4
        }
      ]
    }
  ],
  "nodes": [
    {
      "children": [
        1
      ],
      "matrix": [
        -2.220446049250313e-16,
        -2.220446049250313e-16,
        1.0,
        0.0,
        1.0,
        -4.930380657631324e-32,
        2.220446049250313e-16,
        0.0,
        0.0,
        1.0,
        2.220446049250313e-16,
        0.0,
        4.0204644203186035,
        -8.922297782868426e-16,
        4.018245697021484,
        1.0
      ],
      "name": "Sketchfab_model"
    },
    {
      "children": [
        2
      ],
      "matrix": [
        1.0,
        0.0,
        0.0,
        0.0,
        0.0,
        0.0,
        1.0,
        0.0,
        0.0,
        -1.0,
        0.0,
        0.0,
        0.0,
        0.0,
        0.0,
        1.0
      ],
      "name": "f8e921e7f23842f2b6a41ff51a3f773c.fbx"
    },
    {
      "children": [
        3,
        10
      ],
      "name": "RootNode"
    },
    {
      "children": [
        4,
        6,
        8
      ],
      "matrix": [
        1.0,
        0.0,
        0.0,
        0.0,
        0.0,
        1.0,
        0.0,
        0.0,
        0.0,
        0.0,
        1.0,
        0.0,
        0.0,
        0.0,
        -4.2211594581604,
        1.0
      ],
      "name": "Base"
    },
    {
      "children": [
        5
      ],
      "matrix": [
        0.7686074376106262,
        0.0,
        0.0,
        0.0,
        0.0,
        0.3355098068714142,
        0.0,
        0.0,
        0.0,
        0.0,
        0.794241189956665,
        0.0,
        0.02959141694009304,
        0.452587753534317,
        8.240520477294922,
        1.0
      ],
      "name": "Base"
    },
    {
      "mesh": 0,
      "name": "Base_base_0"
    },
    {
      "children": [
        7
      ],
      "matrix": [
        0.010443399660289288,
        0.0,
        0.0,
        0.0,
        0.0,
        0.29993343353271484,
        0.0,
        0.0,
        0.0,
        0.0,
        0.7100223898887634,
        0.0,
        0.4174458086490631,
        0.452587753534317,
        8.240520477294922,
        1.0
      ],
      "name": "Plaque"
    },
    {
      "mesh": 1,
      "name": "Plaque_plaque_0"
    },
    {
      "children": [
        9
      ],
      "matrix": [
        0.9491050839424133,
        0.0,
        0.0,
        0.0,
        0.0,
        0.08190131932497025,
        0.0,
        0.0,
        0.0,
        0.0,
        1.0174050331115723,
        0.0,
        0.0011138684349134564,
        0.24407753348350525,
        8.240520477294922,
        1.0
      ],
      "name": "Base1"
    },
    {
      "mesh": 2,
      "name": "Base1_base_0"
    },
    {
      "children": [
        11
      ],
      "matrix": [
        1.0,
        0.0,
        0.0,
        0.0,
        0.0,
        1.0,
        0.0,
        0.0,
        0.0,
        0.0,
        1.0,
        0.0,
        0.0,
        0.0,
        4.009851455688477,
        1.0
      ],
      "name": "Twain_Retopo_LowPoly1"
    },
    {
      "mesh": 3,
      "name": "Twain_Retopo_LowPoly1_bust_0"
    }
  ],
  "samplers": [
    {
      "magFilter": 9729,
      "minFilter": 9987,
      "wrapS": 10497,
      "wrapT": 10497
    }
  ],
  "scene": 0,
  "scenes": [
    {
      "name": "Sketchfab_Scene",
      "nodes": [
        0
      ]
    }
  ],
  "textures": [
    {
      "sampler": 0,
      "source": 0
    }
  ]
}
