{
  "accessors": [
    {
      "bufferView": 2,
      "componentType": 5126,
      "count": 51018,
      "max": [
        0.4389950931072235,
        2.1982345581054688,
        0.3949330449104309
      ],
      "min": [
        -0.3613111078739166,
        0.5797098875045776,
        -0.44256871938705444
      ],
      "type": "VEC3"
    },
    {
      "bufferView": 2,
      "byteOffset": 612216,
      "componentType": 5126,
      "count": 51018,
      "max": [
        0.99998939037323,
        0.999975860118866,
        0.9999080300331116
      ],
      "min": [
        -0.9999520182609558,
        -0.9999799132347107,
        -0.9999771118164063
      ],
      "type": "VEC3"
    },
    {
      "bufferView": 1,
      "componentType": 5126,
      "count": 51018,
      "max": [
        0.9723215103149414,
        0.9642635583877563
      ],
      "min": [
        0.008651256561279297,
        0.02379608154296875
      ],
      "type": "VEC2"
    },
    {
      "bufferView": 0,
      "componentType": 5125,
      "count": 303552,
      "type": "SCALAR"
    },
    {
      "bufferView": 2,
      "byteOffset": 1224432,
      "componentType": 5126,
      "count": 239,
      "max": [
        1.0782644748687744,
        1.7234197854995728,
        -1.3603484630584717
      ],
      "min": [
        0.35573574900627136,
        1.3351305723190308,
        -2.3603484630584717
      ],
      "type": "VEC3"
    },
    {
      "bufferView": 2,
      "byteOffset": 1227300,
      "componentType": 5126,
      "count": 239,
      "max": [
        1.0,
        0.976816713809967,
        0.9999979138374329
      ],
      "min": [
        -1.0,
        -0.9993864297866821,
        -0.9999979138374329
      ],
      "type": "VEC3"
    },
    {
      "bufferView": 1,
      "byteOffset": 408144,
      "componentType": 5126,
      "count": 239,
      "max": [
        0.875,
        1.0
      ],
      "min": [
        0.125,
        -7.450580596923828e-08
      ],
      "type": "VEC2"
    },
    {
      "bufferView": 0,
      "byteOffset": 1214208,
      "componentType": 5125,
      "count": 678,
      "type": "SCALAR"
    },
    {
      "bufferView": 2,
      "byteOffset": 1230168,
      "componentType": 5126,
      "count": 112,
      "max": [
        0.49999991059303284,
        0.5,
        0.5
      ],
      "min": [
        -0.5,
        -0.5000000596046448,
        -0.5
      ],
      "type": "VEC3"
    },
    {
      "bufferView": 2,
      "byteOffset": 1231512,
      "componentType": 5126,
      "count": 112,
      "max": [
        0.9999998211860657,
        0.9999841451644897,
        0.9999998807907104
      ],
      "min": [
        -0.9999998211860657,
        -1.0,
        -0.9999998807907104
      ],
      "type": "VEC3"
    },
    {
      "bufferView": 3,
      "componentType": 5126,
      "count": 112,
      "max": [
        0.0,
        0.0,
        0.0,
        1.0
      ],
      "min": [
        0.0,
        0.0,
        0.0,
        0.0
      ],
      "type": "VEC4"
    },
    {
      "bufferView": 1,
      "byteOffset": 410056,
      "componentType": 5126,
      "count": 112,
      "max": [
        0.875,
        1.0
      ],
      "min": [
        -0.0,
        -1.5727766866646675e-09
      ],
      "type": "VEC2"
    },
    {
      "bufferView": 0,
      "byteOffset": 1216920,
      "componentType": 5125,
      "count": 300,
      "type": "SCALAR"
    },
    {
      "bufferView": 2,
      "byteOffset": 1232856,
      "componentType": 5126,
      "count": 24,
      "max": [
        0.5,
        0.5,
        0.5
      ],
      "min": [
        -0.5,
        -0.5,
        -0.5
      ],
      "type": "VEC3"
    },
    {
      "bufferView": 2,
      "byteOffset": 1233144,
      "componentType": 5126,
      "count": 24,
      "max": [
        1.0,
        1.0,
        1.0
      ],
      "min": [
        -1.0,
        -1.0,
        -1.0
      ],
      "type": "VEC3"
    },
    {
      "bufferView": 1,
      "byteOffset": 410952,
      "componentType": 5126,
      "count": 24,
      "max": [
        0.8107696771621704,
        1.0
      ],
      "min": [
        0.125,
        0.0
      ],
      "type": "VEC2"
    },
    {
      "bufferView": 0,
      "byteOffset": 1218120,
      "componentType": 5125,
      "count": 36,
      "type": "SCALAR"
    },
    {
      "bufferView": 2,
      "byteOffset": 1233432,
      "componentType": 5126,
      "count": 112,
      "max": [
        0.49999991059303284,
        0.5,
        0.5
      ],
      "min": [
        -0.5,
        -0.5000000596046448,
        -0.5
      ],
      "type": "VEC3"
    },
    {
      "bufferView": 2,
      "byteOffset": 1234776,
      "componentType": 5126,
      "count": 112,
      "max": [
        0.9999998211860657,
        0.9999841451644897,
        0.9999998807907104
      ],
      "min": [
        -0.9999998211860657,
        -1.0,
        -0.9999998807907104
      ],
      "type": "VEC3"
    },
    {
      "bufferView": 3,
      "byteOffset": 1792,
      "componentType": 5126,
      "count": 112,
      "max": [
        0.0,
        0.0,
        0.0,
        1.0
      ],
      "min": [
        0.0,
        0.0,
        0.0,
        0.0
      ],
      "type": "VEC4"
    },
    {
      "bufferView": 1,
      "byteOffset": 411144,
      "componentType": 5126,
      "count": 112,
      "max": [
        0.875,
        1.0
      ],
      "min": [
        -0.0,
        -1.5727766866646675e-09
      ],
      "type": "VEC2"
    },
    {
      "bufferView": 0,
      "byteOffset": 1218264,
      "componentType": 5125,
      "count": 300,
      "type": "SCALAR"
    }
  ],
  "asset": {
    "extras": {
      "author": "brruble (https://sketchfab.com/brruble)",
      "license": "CC-BY-4.0 (http://creativecommons.org/licenses/by/4.0/)",
      "source": "https://sketchfab.com/3d-models/mark-twain-award-03029fdd394a47e89ea02d49c608f3bb",
      "title": "Mark Twain Award"
    },
    "generator": "Sketchfab-10.55.0",
    "version": "2.0"
  },
  "bufferViews": [
    {
      "buffer": 0,
      "byteLength": 1219464,
      "name": "floatBufferViews",
      "target": 34963
    },
    {
      "buffer": 0,
      "byteLength": 412040,
      "byteOffset": 1219464,
      "byteStride": 8,
      "name": "floatBufferViews",
      "target": 34962
    },
    {
      "buffer": 0,
      "byteLength": 1236120,
      "byteOffset": 1631504,
      "byteStride": 12,
      "name": "floatBufferViews",
      "target": 34962
    },
    {
      "buffer": 0,
      "byteLength": 3584,
      "byteOffset": 2867624,
      "byteStride": 16,
      "name": "floatBufferViews",
      "target": 34962
    }
  ],
  "buffers": [
    {
      "byteLength": 2871208,
      "uri": "scene.bin"
    }
  ],
  "extensionsUsed": [
    "KHR_materials_clearcoat",
    "KHR_texture_transform"
  ],
  "images": [
    {
      "uri": "textures/Twain_06bust_metallicRoughness.jpg"
    },
    {
      "uri": "textures/Twain_06bust_clearcoat.jpg"
    },
    {
      "uri": "textures/Twain_06plaque_baseColor.png"
    },
    {
      "uri": "textures/Twain_06plaque_metallicRoughness.jpg"
    }
  ],
  "materials": [
    {
      "doubleSided": true,
      "extensions": {
        "KHR_materials_clearcoat": {
          "clearcoatFactor": 1.0,
          "clearcoatRoughnessFactor": 0.3239592263587667,
          "clearcoatTexture": {
            "index": 1
          }
        }
      },
      "name": "Twain_06bust",
      "pbrMetallicRoughness": {
        "baseColorFactor": [
          0.12256760431052599,
          0.034801373798935456,
          0.011767313563619694,
          1.0
        ],
        "metallicFactor": 0.3482799190120935,
        "metallicRoughnessTexture": {
          "index": 0
        },
        "roughnessFactor": 0.7252506551386584
      }
    },
    {
      "doubleSided": true,
      "name": "Twain_06base",
      "pbrMetallicRoughness": {
        "baseColorFactor": [
          0.0,
          0.0,
          0.0,
          1.0
        ],
        "metallicFactor": 0.0,
        "roughnessFactor": 0.11666484261471766
      }
    },
    {
      "doubleSided": true,
      "name": "Twain_06plaque",
      "pbrMetallicRoughness": {
        "baseColorTexture": {
          "extensions": {
            "KHR_texture_transform": {
              "offset": [
                0,
                0.001
              ]
            }
          },
          "index": 2
        },
        "metallicRoughnessTexture": {
          "index": 3
        },
        "roughnessFactor": 0.6279678845253513
      }
    }
  ],
  "meshes": [
    {
      "name": "Mesh_Bust_Twain_Twain_06:bust_0",
      "primitives": [
        {
          "attributes": {
            "NORMAL": 1,
            "POSITION": 0,
            "TEXCOORD_0": 2
          },
          "indices": 3,
          "material": 0,
          "mode": 4
        }
      ]
    },
    {
      "name": "Mesh_Bust_Piece_Twain_06:bust_0",
      "primitives": [
        {
          "attributes": {
            "NORMAL": 5,
            "POSITION": 4,
            "TEXCOORD_0": 6
          },
          "indices": 7,
          "material": 0,
          "mode": 4
        }
      ]
    },
    {
      "name": "Mesh_Base_Twain_06:base_0",
      "primitives": [
        {
          "attributes": {
            "COLOR_0": 10,
            "NORMAL": 9,
            "POSITION": 8,
            "TEXCOORD_0": 11
          },
          "indices": 12,
          "material": 1,
          "mode": 4
        }
      ]
    },
    {
      "name": "Mesh_Plaque_Twain_06:plaque_0",
      "primitives": [
        {
          "attributes": {
            "NORMAL": 14,
            "POSITION": 13,
            "TEXCOORD_0": 15
          },
          "indices": 16,
          "material": 2,
          "mode": 4
        }
      ]
    },
    {
      "name": "Mesh_Base_Bottom_Twain_06:base_0",
      "primitives": [
        {
          "attributes": {
            "COLOR_0": 19,
            "NORMAL": 18,
            "POSITION": 17,
            "TEXCOORD_0": 20
          },
          "indices": 21,
          "material": 1,
          "mode": 4
        }
      ]
    }
  ],
  "nodes": [
    {
      "children": [
        1
      ],
      "matrix": [
        0.015392000786960125,
        3.5736244605787066e-16,
        0.9998815655708313,
        0.0,
        0.9998815655708313,
        1.8563315888276553e-16,
        -0.015392000786960125,
        0.0,
        -1.911117028451331e-16,
        1.0,
        -3.544628537560722e-16,
        0.0,
        -2.371619701385498,
        -0.009999999776482232,
        -1.5812405347824097,
        1.0
      ],
      "name": "Sketchfab_model"
    },
    {
      "children": [
        2
      ],
      "matrix": [
        1.0,
        0.0,
        0.0,
        0.0,
        0.0,
        0.0,
        1.0,
        0.0,
        0.0,
        -1.0,
        0.0,
        0.0,
        0.0,
        0.0,
        0.0,
        1.0
      ],
      "name": "e283d959cc674b32845612152c3f1ce0.fbx"
    },
    {
      "children": [
        3,
        5,
        7
      ],
      "name": "RootNode"
    },
    {
      "children": [
        4
      ],
      "matrix": [
        5.05551290512085,
        0.0,
        0.0,
        0.0,
        0.0,
        5.05551290512085,
        0.0,
        0.0,
        0.0,
        0.0,
        5.05551290512085,
        0.0,
        -0.08937109261751175,
        -1.6845245361328125,
        -1.8839118480682373,
        1.0
      ],
      "name": "Mesh_Bust_Twain"
    },
    {
      "mesh": 0,
      "name": "Mesh_Bust_Twain_Twain_06:bust_0"
    },
    {
      "children": [
        6
      ],
      "name": "Mesh_Bust_Piece"
    },
    {
      "mesh": 1,
      "name": "Mesh_Bust_Piece_Twain_06:bust_0"
    },
    {
      "children": [
        8,
        10,
        12
      ],
      "matrix": [
        1.0,
        0.0,
        0.0,
        0.0,
        0.0,
        1.0,
        0.0,
        0.0,
        0.0,
        0.0,
        1.0,
        0.0,
        0.0,
        0.0,
        -4.2211594581604,
        1.0
      ],
      "name": "Twain_06:Base"
    },
    {
      "children": [
        9
      ],
      "matrix": [
        4.078081130981445,
        0.0,
        0.0,
        0.0,
        0.0,
        1.7801496982574463,
        0.0,
        0.0,
        0.0,
        0.0,
        4.2140889167785645,
        0.0,
        -0.3946007490158081,
        0.452587753534317,
        2.249290704727173,
        1.0
      ],
      "name": "Mesh_Base"
    },
    {
      "mesh": 2,
      "name": "Mesh_Base_Twain_06:base_0"
    },
    {
      "children": [
        11
      ],
      "matrix": [
        0.05541064217686653,
        0.0,
        0.0,
        0.0,
        0.0,
        1.5913883447647095,
        0.0,
        0.0,
        0.0,
        0.0,
        3.767240524291992,
        0.0,
        1.6625380516052246,
        0.452587753534317,
        2.249290704727173,
        1.0
      ],
      "name": "Mesh_Plaque"
    },
    {
      "mesh": 3,
      "name": "Mesh_Plaque_Twain_06:plaque_0"
    },
    {
      "children": [
        13
      ],
      "matrix": [
        5.0357666015625,
        0.0,
        0.0,
        0.0,
        0.0,
        0.43455246090888977,
        0.0,
        0.0,
        0.0,
        0.0,
        5.398152828216553,
        0.0,
        -0.4230782985687256,
        -0.6421997547149658,
        2.249290704727173,
        1.0
      ],
      "name": "Mesh_Base_Bottom"
    },
    {
      "mesh": 4,
      "name": "Mesh_Base_Bottom_Twain_06:base_0"
    }
  ],
  "samplers": [
    {
      "magFilter": 9729,
      "minFilter": 9987,
      "wrapS": 33648,
      "wrapT": 10497
    },
    {
      "magFilter": 9729,
      "minFilter": 9987,
      "wrapS": 10497,
      "wrapT": 10497
    }
  ],
  "scene": 0,
  "scenes": [
    {
      "name": "Sketchfab_Scene",
      "nodes": [
        0
      ]
    }
  ],
  "textures": [
    {
      "sampler": 0,
      "source": 0
    },
    {
      "sampler": 1,
      "source": 1
    },
    {
      "sampler": 1,
      "source": 2
    },
    {
      "sampler": 1,
      "source": 3
    }
  ]
}
