<svg xmlns="http://www.w3.org/2000/svg" viewBox="0 0 40.3 33.23"><defs><style>.cls-1{fill:#fff;}</style></defs><g id="Layer_2" data-name="Layer 2"><g id="Layer_1-2" data-name="Layer 1"><path class="cls-1" d="M17.81.12a1.52,1.52,0,0,0-1.68.36L8.35,8.3H1.59A1.58,1.58,0,0,0,0,9.85V23.33a1.55,1.55,0,0,0,1.59,1.55H8.35l7.83,7.86a1.57,1.57,0,0,0,1.1.49,1,1,0,0,0,.53-.13,1.6,1.6,0,0,0,.93-1.46V1.58A1.47,1.47,0,0,0,17.81.12Zm7.12,23.21a1.59,1.59,0,0,1-1.19.53,1.66,1.66,0,0,1-1.07-.4,1.6,1.6,0,0,1-.13-2.25c3.94-4.42.4-8.71,0-9.2a1.56,1.56,0,1,1,2.34-2.07A9.77,9.77,0,0,1,24.93,23.33Zm4.82,4.2a1.61,1.61,0,0,1-1.2.53,1.65,1.65,0,0,1-1.06-.4,1.6,1.6,0,0,1-.13-2.25c7.82-8.71.31-17.29,0-17.64a1.6,1.6,0,0,1,2.39-2.12C29.83,5.78,39.38,16.74,29.75,27.53Zm5,3.18a1.59,1.59,0,0,1-1.19.53,1.63,1.63,0,0,1-1.06-.4,1.6,1.6,0,0,1-.14-2.25c4.47-4.95,5.84-10.48,4-16.4a22.49,22.49,0,0,0-4-7.56,1.6,1.6,0,0,1,2.39-2.12C34.83,2.64,47.2,16.79,34.74,30.71Z"/></g></g></svg>