{
  "accessors": [
    {
      "bufferView": 2,
      "componentType": 5126,
      "count": 298,
      "max": [
        0.61886799335479736,
        1,
        0.56150799989700317
      ],
      "min": [
        -0.61886799335479736,
        -1,
        -0.69886797666549683
      ],
      "type": "VEC3"
    },
    {
      "bufferView": 2,
      "byteOffset": 3576,
      "componentType": 5126,
      "count": 298,
      "max": [
        1,
        1,
        1
      ],
      "min": [
        -1,
        -1,
        -1
      ],
      "type": "VEC3"
    },
    {
      "bufferView": 3,
      "componentType": 5126,
      "count": 298,
      "max": [
        0.99999988079071045,
        0.99995684623718262,
        0.99987930059432983,
        1
      ],
      "min": [
        -0.99972724914550781,
        -0.99922209978103638,
        -1,
        1
      ],
      "type": "VEC4"
    },
    {
      "bufferView": 1,
      "componentType": 5126,
      "count": 298,
      "max": [
        0.98699599504470825,
        0.9779670238494873
      ],
      "min": [
        0.0087512703612446785,
        0.070696599781513214
      ],
      "type": "VEC2"
    },
    {
      "bufferView": 0,
      "componentType": 5125,
      "count": 774,
      "max": [
        297
      ],
      "min": [
        0
      ],
      "type": "SCALAR"
    },
    {
      "bufferView": 2,
      "byteOffset": 7152,
      "componentType": 5126,
      "count": 180,
      "max": [
        0.45301699638366699,
        0.12902100384235382,
        0.69886797666549683
      ],
      "min": [
        -0.45300498604774475,
        -0.77203899621963501,
        0.56000000238418579
      ],
      "type": "VEC3"
    },
    {
      "bufferView": 2,
      "byteOffset": 9312,
      "componentType": 5126,
      "count": 180,
      "max": [
        1,
        0.99452197551727295,
        0.99058800935745239
      ],
      "min": [
        -1,
        -0.9945218563079834,
        0
      ],
      "type": "VEC3"
    },
    {
      "bufferView": 3,
      "byteOffset": 4768,
      "componentType": 5126,
      "count": 180,
      "max": [
        0.9998970627784729,
        0.013571850024163723,
        0.6262468695640564,
        1
      ],
      "min": [
        0,
        -0.0068176747299730778,
        -0.6262468695640564,
        1
      ],
      "type": "VEC4"
    },
    {
      "bufferView": 1,
      "byteOffset": 2384,
      "componentType": 5126,
      "count": 180,
      "max": [
        0.31183400750160217,
        0.2870509922504425
      ],
      "min": [
        0.032753601670265198,
        0.009498870000243187
      ],
      "type": "VEC2"
    },
    {
      "bufferView": 0,
      "byteOffset": 3096,
      "componentType": 5125,
      "count": 804,
      "max": [
        179
      ],
      "min": [
        0
      ],
      "type": "SCALAR"
    },
    {
      "bufferView": 2,
      "byteOffset": 11472,
      "componentType": 5126,
      "count": 466,
      "max": [
        0.4905720055103302,
        0.16490800678730011,
        0.59509402513504028
      ],
      "min": [
        -0.49055999517440796,
        -0.80938798189163208,
        0.39207500219345093
      ],
      "type": "VEC3"
    },
    {
      "bufferView": 2,
      "byteOffset": 17064,
      "componentType": 5126,
      "count": 466,
      "max": [
        0.90528970956802368,
        0.97672110795974731,
        1
      ],
      "min": [
        -0.90529012680053711,
        -0.90033125877380371,
        -0.67010468244552612
      ],
      "type": "VEC3"
    },
    {
      "bufferView": 3,
      "byteOffset": 7648,
      "componentType": 5126,
      "count": 466,
      "max": [
        0.72394144535064697,
        0.84920978546142578,
        0.9046323299407959,
        1
      ],
      "min": [
        -0.99997544288635254,
        -0.9445418119430542,
        -0.90515899658203125,
        1
      ],
      "type": "VEC4"
    },
    {
      "bufferView": 1,
      "byteOffset": 3824,
      "componentType": 5126,
      "count": 466,
      "max": [
        0.97960501909255981,
        0.97816401720046997
      ],
      "min": [
        0.70990902185440063,
        0.75749701261520386
      ],
      "type": "VEC2"
    },
    {
      "bufferView": 0,
      "byteOffset": 6312,
      "componentType": 5125,
      "count": 1524,
      "max": [
        465
      ],
      "min": [
        0
      ],
      "type": "SCALAR"
    },
    {
      "bufferView": 2,
      "byteOffset": 22656,
      "componentType": 5126,
      "count": 180,
      "max": [
        0.13590900599956512,
        0.80970901250839233,
        0.61866098642349243
      ],
      "min": [
        -0.13589799404144287,
        0.53939002752304077,
        0.57700002193450928
      ],
      "type": "VEC3"
    },
    {
      "bufferView": 2,
      "byteOffset": 24816,
      "componentType": 5126,
      "count": 180,
      "max": [
        1,
        0.9945218563079834,
        0.99058800935745239
      ],
      "min": [
        -1,
        -0.9945218563079834,
        0
      ],
      "type": "VEC3"
    },
    {
      "bufferView": 3,
      "byteOffset": 15104,
      "componentType": 5126,
      "count": 180,
      "max": [
        0.99989700317382812,
        0.013576975092291832,
        0.6262473464012146,
        1
      ],
      "min": [
        0,
        -0.0068182242102921009,
        -0.62624740600585938,
        1
      ],
      "type": "VEC4"
    },
    {
      "bufferView": 1,
      "byteOffset": 7552,
      "componentType": 5126,
      "count": 180,
      "max": [
        0.27720201015472412,
        0.25260800123214722
      ],
      "min": [
        0.067385800182819366,
        0.043941199779510498
      ],
      "type": "VEC2"
    },
    {
      "bufferView": 0,
      "byteOffset": 12408,
      "componentType": 5125,
      "count": 804,
      "max": [
        179
      ],
      "min": [
        0
      ],
      "type": "SCALAR"
    },
    {
      "bufferView": 2,
      "byteOffset": 26976,
      "componentType": 5126,
      "count": 466,
      "max": [
        0.14717599749565125,
        0.82056397199630737,
        0.58752900362014771
      ],
      "min": [
        -0.1471640020608902,
        0.52818602323532104,
        0.52662301063537598
      ],
      "type": "VEC3"
    },
    {
      "bufferView": 2,
      "byteOffset": 32568,
      "componentType": 5126,
      "count": 466,
      "max": [
        0.90528970956802368,
        0.97672188282012939,
        1
      ],
      "min": [
        -0.90528970956802368,
        -0.90033173561096191,
        -0.67010325193405151
      ],
      "type": "VEC3"
    },
    {
      "bufferView": 3,
      "byteOffset": 17984,
      "componentType": 5126,
      "count": 466,
      "max": [
        0.72808516025543213,
        0.83786243200302124,
        0.90402257442474365,
        1
      ],
      "min": [
        -0.99999701976776123,
        -0.95689493417739868,
        -0.90523993968963623,
        1
      ],
      "type": "VEC4"
    },
    {
      "bufferView": 1,
      "byteOffset": 8992,
      "componentType": 5126,
      "count": 466,
      "max": [
        0.95619702339172363,
        0.95441502332687378
      ],
      "min": [
        0.73285597562789917,
        0.77536100149154663
      ],
      "type": "VEC2"
    },
    {
      "bufferView": 0,
      "byteOffset": 15624,
      "componentType": 5125,
      "count": 1524,
      "max": [
        465
      ],
      "min": [
        0
      ],
      "type": "SCALAR"
    }
  ],
  "asset": {
    "extras": {
      "author": "Shanika.Perez (https://sketchfab.com/Shanika.Perez)",
      "license": "CC-BY-4.0 (http://creativecommons.org/licenses/by/4.0/)",
      "source": "https://sketchfab.com/3d-models/speakers-4445f4442a884999960e7e6660459095",
      "title": "Speakers"
    },
    "generator": "Sketchfab-4.86.2",
    "version": "2.0"
  },
  "bufferViews": [
    {
      "buffer": 0,
      "byteLength": 21720,
      "byteOffset": 0,
      "name": "floatBufferViews",
      "target": 34963
    },
    {
      "buffer": 0,
      "byteLength": 12720,
      "byteOffset": 21720,
      "byteStride": 8,
      "name": "floatBufferViews",
      "target": 34962
    },
    {
      "buffer": 0,
      "byteLength": 38160,
      "byteOffset": 34440,
      "byteStride": 12,
      "name": "floatBufferViews",
      "target": 34962
    },
    {
      "buffer": 0,
      "byteLength": 25440,
      "byteOffset": 72600,
      "byteStride": 16,
      "name": "floatBufferViews",
      "target": 34962
    }
  ],
  "buffers": [
    {
      "byteLength": 98040,
      "uri": "scene.bin"
    }
  ],
  "images": [
    {
      "uri": "textures/1001_metallicRoughness.png"
    },
    {
      "uri": "textures/1001_baseColor.jpeg"
    },
    {
      "uri": "textures/1001_normal.png"
    }
  ],
  "materials": [
    {
      "doubleSided": true,
      "name": "1001",
      "normalTexture": {
        "index": 2,
        "scale": 1,
        "texCoord": 0
      },
      "occlusionTexture": {
        "index": 0,
        "strength": 1,
        "texCoord": 0
      },
      "pbrMetallicRoughness": {
        "baseColorFactor": [
          1,
          1,
          1,
          1
        ],
        "baseColorTexture": {
          "index": 1,
          "texCoord": 0
        },
        "metallicFactor": 1,
        "metallicRoughnessTexture": {
          "index": 0,
          "texCoord": 0
        },
        "roughnessFactor": 0.6643125057
      }
    }
  ],
  "meshes": [
    {
      "name": "defaultMaterial",
      "primitives": [
        {
          "attributes": {
            "NORMAL": 1,
            "POSITION": 0,
            "TANGENT": 2,
            "TEXCOORD_0": 3
          },
          "indices": 4,
          "material": 0,
          "mode": 4
        }
      ]
    },
    {
      "name": "defaultMaterial",
      "primitives": [
        {
          "attributes": {
            "NORMAL": 6,
            "POSITION": 5,
            "TANGENT": 7,
            "TEXCOORD_0": 8
          },
          "indices": 9,
          "material": 0,
          "mode": 4
        }
      ]
    },
    {
      "name": "defaultMaterial",
      "primitives": [
        {
          "attributes": {
            "NORMAL": 11,
            "POSITION": 10,
            "TANGENT": 12,
            "TEXCOORD_0": 13
          },
          "indices": 14,
          "material": 0,
          "mode": 4
        }
      ]
    },
    {
      "name": "defaultMaterial",
      "primitives": [
        {
          "attributes": {
            "NORMAL": 16,
            "POSITION": 15,
            "TANGENT": 17,
            "TEXCOORD_0": 18
          },
          "indices": 19,
          "material": 0,
          "mode": 4
        }
      ]
    },
    {
      "name": "defaultMaterial",
      "primitives": [
        {
          "attributes": {
            "NORMAL": 21,
            "POSITION": 20,
            "TANGENT": 22,
            "TEXCOORD_0": 23
          },
          "indices": 24,
          "material": 0,
          "mode": 4
        }
      ]
    }
  ],
  "nodes": [
    {
      "children": [
        1
      ],
      "name": "RootNode (gltf orientation matrix)",
      "rotation": [
        -0.70710678118654746,
        -0,
        -0,
        0.70710678118654757
      ]
    },
    {
      "children": [
        2
      ],
      "name": "RootNode (model correction matrix)"
    },
    {
      "children": [
        3,
        5,
        7,
        9,
        11
      ],
      "matrix": [
        1,
        0,
        0,
        0,
        0,
        -4.3711390063094768e-08,
        0.999999999999999,
        0,
        0,
        -0.999999999999999,
        -4.3711390063094768e-08,
        0,
        0,
        0,
        0,
        1
      ],
      "name": "Collada visual scene group"
    },
    {
      "children": [
        4
      ],
      "name": "polySurface20"
    },
    {
      "mesh": 0,
      "name": "defaultMaterial"
    },
    {
      "children": [
        6
      ],
      "name": "polySurface19"
    },
    {
      "mesh": 1,
      "name": "defaultMaterial"
    },
    {
      "children": [
        8
      ],
      "name": "polySurface18"
    },
    {
      "mesh": 2,
      "name": "defaultMaterial"
    },
    {
      "children": [
        10
      ],
      "name": "polySurface17"
    },
    {
      "mesh": 3,
      "name": "defaultMaterial"
    },
    {
      "children": [
        12
      ],
      "name": "polySurface16"
    },
    {
      "mesh": 4,
      "name": "defaultMaterial"
    }
  ],
  "samplers": [
    {
      "magFilter": 9729,
      "minFilter": 9987,
      "wrapS": 10497,
      "wrapT": 10497
    }
  ],
  "scene": 0,
  "scenes": [
    {
      "name": "OSG_Scene",
      "nodes": [
        0
      ]
    }
  ],
  "textures": [
    {
      "sampler": 0,
      "source": 0
    },
    {
      "sampler": 0,
      "source": 1
    },
    {
      "sampler": 0,
      "source": 2
    }
  ]
}

